<svg width="512" height="512" viewBox="0 0 512 512" fill="none" xmlns="http://www.w3.org/2000/svg">
  <rect width="512" height="512" rx="128" fill="url(#paint0_linear)"/>
  <path d="M256 128C185.307 128 128 185.307 128 256C128 326.693 185.307 384 256 384C326.693 384 384 326.693 384 256C384 185.307 326.693 128 256 128ZM256 170.667C279.787 170.667 298.667 189.547 298.667 213.333C298.667 237.12 279.787 256 256 256C232.213 256 213.333 237.12 213.333 213.333C213.333 189.547 232.213 170.667 256 170.667ZM256 352C221.333 352 190.72 335.36 170.667 309.76C170.88 282.88 224 268.8 256 268.8C287.787 268.8 341.12 282.88 341.333 309.76C321.28 335.36 290.667 352 256 352Z" fill="white"/>
  <defs>
    <linearGradient id="paint0_linear" x1="0" y1="0" x2="512" y2="512" gradientUnits="userSpaceOnUse">
      <stop stop-color="#7C3AED"/>
      <stop offset="1" stop-color="#4F46E5"/>
    </linearGradient>
  </defs>
</svg>
